<svg width="165" height="44" viewBox="0 0 165 44" fill="none" xmlns="http://www.w3.org/2000/svg">
<circle cx="22" cy="22" r="22" fill="#3B71FE"/>
<path d="M9.5098 17.7896C9.5098 14.0398 12.5496 11 16.2994 11H35.0518C35.0518 14.7498 32.0119 17.7896 28.2621 17.7896H9.5098Z" fill="white"/>
<path d="M13.3896 35.3503L16.953 24.0971C18.085 20.5222 21.9006 18.5419 25.4755 19.6739L21.9121 30.9271C20.7801 34.502 16.9645 36.4823 13.3896 35.3503Z" fill="white"/>
<path d="M61.5918 29.86C60.3091 29.86 59.2569 29.66 58.4351 29.26C57.6134 28.84 57.0021 28.29 56.6013 27.61C56.2004 26.93 56 26.18 56 25.36C56 23.98 56.5411 22.86 57.6234 22C58.7057 21.14 60.3291 20.71 62.4937 20.71H66.2817V20.35C66.2817 19.33 65.9911 18.58 65.4099 18.1C64.8287 17.62 64.1071 17.38 63.2453 17.38C62.4637 17.38 61.7822 17.57 61.201 17.95C60.6198 18.31 60.259 18.85 60.1187 19.57H56.3608C56.461 18.49 56.8217 17.55 57.443 16.75C58.0844 15.95 58.9061 15.34 59.9083 14.92C60.9104 14.48 62.0327 14.26 63.2754 14.26C65.3999 14.26 67.0734 14.79 68.296 15.85C69.5186 16.91 70.1299 18.41 70.1299 20.35V29.5H66.8529L66.4922 27.1C66.0512 27.9 65.4299 28.56 64.6282 29.08C63.8466 29.6 62.8344 29.86 61.5918 29.86ZM62.4637 26.86C63.566 26.86 64.4178 26.5 65.0191 25.78C65.6404 25.06 66.0312 24.17 66.1915 23.11H62.9146C61.8925 23.11 61.1609 23.3 60.72 23.68C60.279 24.04 60.0586 24.49 60.0586 25.03C60.0586 25.61 60.279 26.06 60.72 26.38C61.1609 26.7 61.7421 26.86 62.4637 26.86Z" fill="#3B71FE"/>
<path d="M81.1075 29.86C79.5843 29.86 78.2414 29.53 77.079 28.87C75.9165 28.21 74.9946 27.29 74.3131 26.11C73.6518 24.93 73.3211 23.58 73.3211 22.06C73.3211 20.54 73.6518 19.19 74.3131 18.01C74.9946 16.83 75.9165 15.91 77.079 15.25C78.2414 14.59 79.5843 14.26 81.1075 14.26C83.0115 14.26 84.6149 14.76 85.9177 15.76C87.2204 16.74 88.0522 18.1 88.4129 19.84H84.3544C84.1539 19.12 83.7531 18.56 83.1518 18.16C82.5706 17.74 81.8791 17.53 81.0774 17.53C80.0152 17.53 79.1133 17.93 78.3717 18.73C77.6302 19.53 77.2594 20.64 77.2594 22.06C77.2594 23.48 77.6302 24.59 78.3717 25.39C79.1133 26.19 80.0152 26.59 81.0774 26.59C81.8791 26.59 82.5706 26.39 83.1518 25.99C83.7531 25.59 84.1539 25.02 84.3544 24.28H88.4129C88.0522 25.96 87.2204 27.31 85.9177 28.33C84.6149 29.35 83.0115 29.86 81.1075 29.86Z" fill="#3B71FE"/>
<path d="M98.267 29.5C96.7037 29.5 95.451 29.12 94.509 28.36C93.567 27.6 93.096 26.25 93.096 24.31V17.83H90.5406V14.62H93.096L93.547 10.63H96.9442V14.62H100.973V17.83H96.9442V24.34C96.9442 25.06 97.0945 25.56 97.3951 25.84C97.7158 26.1 98.2569 26.23 99.0186 26.23H100.882V29.5H98.267Z" fill="#3B71FE"/>
<path d="M106.351 12.31C105.65 12.31 105.068 12.1 104.607 11.68C104.166 11.26 103.946 10.73 103.946 10.09C103.946 9.44999 104.166 8.92999 104.607 8.52999C105.068 8.10999 105.65 7.89999 106.351 7.89999C107.052 7.89999 107.624 8.10999 108.065 8.52999C108.526 8.92999 108.756 9.44999 108.756 10.09C108.756 10.73 108.526 11.26 108.065 11.68C107.624 12.1 107.052 12.31 106.351 12.31ZM104.427 29.5V14.62H108.275V29.5H104.427Z" fill="#3B71FE"/>
<path d="M116.32 29.5L110.849 14.62H114.877L118.665 25.87L122.453 14.62H126.482L120.98 29.5H116.32Z" fill="#3B71FE"/>
<path d="M130.983 12.31C130.282 12.31 129.7 12.1 129.239 11.68C128.799 11.26 128.578 10.73 128.578 10.09C128.578 9.44999 128.799 8.92999 129.239 8.52999C129.7 8.10999 130.282 7.89999 130.983 7.89999C131.685 7.89999 132.256 8.10999 132.697 8.52999C133.158 8.92999 133.388 9.44999 133.388 10.09C133.388 10.73 133.158 11.26 132.697 11.68C132.256 12.1 131.685 12.31 130.983 12.31ZM129.059 29.5V14.62H132.907V29.5H129.059Z" fill="#3B71FE"/>
<path d="M143.568 29.5C142.004 29.5 140.752 29.12 139.81 28.36C138.868 27.6 138.397 26.25 138.397 24.31V17.83H135.841V14.62H138.397L138.848 10.63H142.245V14.62H146.273V17.83H142.245V24.34C142.245 25.06 142.395 25.56 142.696 25.84C143.017 26.1 143.558 26.23 144.319 26.23H146.183V29.5H143.568Z" fill="#3B71FE"/>
<path d="M151.441 36.1L154.899 28.51H153.997L148.194 14.62H152.373L156.552 25.09L160.911 14.62H165L155.53 36.1H151.441Z" fill="#3B71FE"/>
</svg>
